<svg xmlns="http://www.w3.org/2000/svg" viewBox="0 0 510.81 292.05"><defs><style>.cls-1{fill:#e15d3a;}</style></defs><title>Asset 20</title><g id="Layer_2" data-name="Layer 2"><g id="Layer_1-2" data-name="Layer 1"><path class="cls-1" d="M102.36,262.88a6.3,6.3,0,0,1,3,1,9.15,9.15,0,0,1,2.56,2.37,10.1,10.1,0,0,1,1.59,3.18,7.68,7.68,0,0,1,.24,3.49,16,16,0,0,1-3,7.12,24.84,24.84,0,0,1-5.69,5.66,24.24,24.24,0,0,1-6.79,3.46,12.38,12.38,0,0,1-6.24.55l-.73,1.89a8.7,8.7,0,0,1-1.42.34c-.52.07-1.06.11-1.61.13s-1.08,0-1.59-.06a10.3,10.3,0,0,1-1.32-.18,1.84,1.84,0,0,1-1.34-1c-.1-.52-.21-1-.36-1.54s-.29-1-.42-1.51c0-.07,0-.2.1-.39a1.49,1.49,0,0,0,.45-1.11c0-.39,0-.78,0-1.19.16-3.16.32-6.17.46-9s.32-5.65.54-8.36.49-5.37.84-8a80.74,80.74,0,0,1,1.47-8,2.72,2.72,0,0,1,1.8-.69,8.08,8.08,0,0,1,1.76,0A1.18,1.18,0,0,1,88,252.26q0,.59,0,1.14c0,.38,0,.79-.05,1.22s0,.86,0,1.27a12.18,12.18,0,0,1,0,1.33,58.32,58.32,0,0,1,4.38-6,20.36,20.36,0,0,1,5.82-4.66,5.5,5.5,0,0,1,1.94-.63,3.24,3.24,0,0,1,1.86.35c.41.17.83.36,1.22.57a6,6,0,0,1,1.11.72,5.13,5.13,0,0,1,2.22,6.47c-.64,1.62-1.28,3.18-1.93,4.63a34.13,34.13,0,0,1-2.21,4.16M88.3,268.72c.46-.48.94-.9,1.39-1.3l3.53-4.17c1.21-1.41,2.34-2.86,3.41-4.35a42.82,42.82,0,0,0,2.92-4.67,25.14,25.14,0,0,0,2.07-5,4.67,4.67,0,0,0-1.72.63,16.84,16.84,0,0,0-1.41,1,25.74,25.74,0,0,0-3.31,3.05,32.28,32.28,0,0,0-4.79,7c-.66,1.28-1.29,2.57-1.92,3.9a3.16,3.16,0,0,0-.48,1.81,13.89,13.89,0,0,0,.31,2m-.08,7.87c-.08,2.08-.11,3.85-.08,5.32a14.1,14.1,0,0,0,.34,3.22,9.09,9.09,0,0,0,2.39-.8A15.09,15.09,0,0,0,93,283a28.21,28.21,0,0,0,5.87-5.39,32.51,32.51,0,0,0,4.08-6.51c.18-.42.37-.89.57-1.4a11.5,11.5,0,0,0,.48-1.55,5.27,5.27,0,0,0,.17-1.51,1.91,1.91,0,0,0-.42-1.25,14,14,0,0,0-3.25.94,6.86,6.86,0,0,0-2.6,2,22.54,22.54,0,0,1-3.65,3.85,39.92,39.92,0,0,1-4.39,3.21Z"/><path class="cls-1" d="M122.15,250.24c-.15.13-.3.26-.41.37a2.32,2.32,0,0,1-.42.32l-5.22,2.75a2.86,2.86,0,0,1-2.29.36c-1-.26-1.54-.56-1.65-.93a2.29,2.29,0,0,1,.35-1.52,20,20,0,0,1,1.11-1.79,6.23,6.23,0,0,1,1.55-1.52,3.23,3.23,0,0,1,2.72-.56q.92.28,1.86.63a5,5,0,0,1,1.61.93,1.4,1.4,0,0,1,.45.46,3,3,0,0,0,.34.5m-5.07,7.25c.26.07.5.13.72.17a3.11,3.11,0,0,1,.68.19,2,2,0,0,1,1.76,1.71c.07.45.12.89.15,1.34a8.6,8.6,0,0,1,0,1.34l-.61,8.06c-.06.89-.12,1.76-.19,2.6s-.12,1.73-.12,2.64c0,.76,0,1.53-.06,2.3a3.35,3.35,0,0,0,.86,2.22,8.58,8.58,0,0,0-.91.45,2.62,2.62,0,0,1-.73.28l-1.71.1c-.57,0-1.12,0-1.67,0a4.16,4.16,0,0,1-2.26-.73,3.28,3.28,0,0,1-1-1.89c-.1-.52-.21-1-.31-1.55a5.77,5.77,0,0,1-.13-1.55c.12-2.13.34-4.41.67-6.82a23.81,23.81,0,0,1,1.93-6.75c.21-.47.38-.86.55-1.19a5.24,5.24,0,0,1,.56-.92,7.93,7.93,0,0,1,.75-.9c.31-.33.68-.71,1.14-1.13"/><path class="cls-1" d="M124.92,256.38a10.38,10.38,0,0,1-2.73-.56,3.56,3.56,0,0,1-1.93-1.72l5.69-2.21,2.85-6a39.69,39.69,0,0,1,1.89-3.53,16.45,16.45,0,0,1,2.53-3.21l.59-.67a1,1,0,0,1,.92-.24c.45,0,.71.21.8.52a4.8,4.8,0,0,1,.15.91,9.84,9.84,0,0,1,0,1.33c0,.46-.05.91-.1,1.36l-.84,5.07a3.15,3.15,0,0,0-.06.7c0,.25,0,.51,0,.78,1.29-.27,2.59-.52,3.89-.74s2.75-.39,4.32-.52c-.42.38-.74.67-.94.87a5.1,5.1,0,0,1-.64.54,29.74,29.74,0,0,1-2.87,1.84,24.2,24.2,0,0,1-3.15,1.53,3,3,0,0,0-1.44,1,3.86,3.86,0,0,0-.56,1.47c-.44,2.46-.86,4.91-1.3,7.33s-.74,4.85-1,7.29c0,.57-.09,1.14-.12,1.69a5.25,5.25,0,0,0,.14,1.6.56.56,0,0,0,.63.08,4.58,4.58,0,0,0,.48-.33l5-4.4c.14,0,.22.14.27.35s.07.42.1.64a4.89,4.89,0,0,1,0,.66,1.33,1.33,0,0,1,0,.4,9.5,9.5,0,0,1-1,1.86,11.21,11.21,0,0,1-1.59,1.8A10.57,10.57,0,0,1,133,275.3a4.35,4.35,0,0,1-2,.59c-.59,0-1.15.08-1.7.13a13.41,13.41,0,0,1-1.68.06,4.18,4.18,0,0,1-2.44-.68,3.77,3.77,0,0,1-1.3-1.89,11.25,11.25,0,0,1-.47-2,15.91,15.91,0,0,1-.13-2.08,43.23,43.23,0,0,1,.38-5.48c.25-1.78.54-3.62.86-5.45Z"/><path class="cls-1" d="M160.61,260.38a15.18,15.18,0,0,1-1.3,2.79,11.93,11.93,0,0,1-2.07,2.55,11.62,11.62,0,0,1-3,2,12.43,12.43,0,0,1-4,1.14,11.09,11.09,0,0,1-7-1.08,7.54,7.54,0,0,1-3-2.82,8.92,8.92,0,0,1-1.25-3.74,13.3,13.3,0,0,1,.19-4.2,19.63,19.63,0,0,1,1.32-4.26,22.06,22.06,0,0,1,2.13-3.85,17.24,17.24,0,0,1,2.66-3,11.45,11.45,0,0,1,4.26-2.43,7,7,0,0,1,4.74.19,6.89,6.89,0,0,1,3.37,2.73,7.8,7.8,0,0,1,1,4,12,12,0,0,1-.83,4.31,15.18,15.18,0,0,1-2.35,4,7,7,0,0,1-4.18,2.5,10.31,10.31,0,0,1-4.43-.38,7.2,7.2,0,0,0-.12,2.75c.15.86.35,1.7.58,2.53a4.93,4.93,0,0,0,3.42-.32,17.41,17.41,0,0,0,3.55-2.08,25.08,25.08,0,0,0,3.17-2.8c1-1,1.73-1.85,2.3-2.52.35-.27.59-.36.77-.26a.67.67,0,0,1,.3.55,3.48,3.48,0,0,1,0,.9,6.47,6.47,0,0,1-.19.82m-13.56-1.54a2.91,2.91,0,0,0,1.32.43,1.4,1.4,0,0,0,.9-.3,3.09,3.09,0,0,0,.67-.84c.19-.37.4-.76.61-1.18.35-.86.69-1.72,1.09-2.57s.72-1.72,1-2.59a16.92,16.92,0,0,0,.67-2.58,10.4,10.4,0,0,0,.1-2.55,22.88,22.88,0,0,0-4.33,5.77,20.4,20.4,0,0,0-2.06,6.41"/><path class="cls-1" d="M182.26,261.16c.19,1.16.42,2.28.71,3.37a6.43,6.43,0,0,0,1.76,3,2.27,2.27,0,0,0,1.55-.84,8.42,8.42,0,0,0,.79-1.53,17.6,17.6,0,0,0,1.28-5.5c.14-1.93.2-3.79.2-5.57a5.59,5.59,0,0,1-2.22,1.89,10.75,10.75,0,0,1-3.2,1.05,11.37,11.37,0,0,1-3.34.06,5.46,5.46,0,0,1-2.66-1,3.21,3.21,0,0,1-1.45-2.93q.25-3.81.67-7.28a62.11,62.11,0,0,1,1.23-7,6.21,6.21,0,0,1,.63-1.42,10.81,10.81,0,0,1,1.06-1.6,5.41,5.41,0,0,1,1.31-1.23,1.82,1.82,0,0,1,1.39-.35,2.34,2.34,0,0,1,1.66,1.33,4.94,4.94,0,0,1,.26,2.1c-.1,1.22-.25,2.5-.42,3.86s-.34,2.72-.5,4.1-.27,2.71-.39,4a31.91,31.91,0,0,0-.1,3.74,1.91,1.91,0,0,0,1.86.17,6.92,6.92,0,0,0,2-1.19A8.55,8.55,0,0,0,188,250.6a4.13,4.13,0,0,0,.77-1.58c.15-1.19.31-2.37.45-3.52s.29-2.32.45-3.51c0-.45.13-1,.25-1.73s.26-1.44.42-2.18.34-1.47.52-2.15a7.87,7.87,0,0,1,.6-1.67,16.83,16.83,0,0,1,.89-1.43,16.32,16.32,0,0,1,1.07-1.36,3.88,3.88,0,0,1,1.61-1.19,7.39,7.39,0,0,1,2-.5c1.27-.11,1.8.38,1.62,1.47l-.25.84a37,37,0,0,0-1,4c-.31,1.47-.57,3-.79,4.46s-.39,3-.51,4.46-.2,2.79-.23,4c-.07,1.56-.19,3.21-.35,5a44.41,44.41,0,0,1-.77,5.1,22.33,22.33,0,0,1-1.49,4.6,10.53,10.53,0,0,1-2.62,3.56q-4.38,3.36-9,2.14A3.49,3.49,0,0,1,179,267.6a4.36,4.36,0,0,1-.38-2.82,5.16,5.16,0,0,1,1.31-2.6,2.53,2.53,0,0,1,2.35-1"/><path class="cls-1" d="M200.3,245.07a15.88,15.88,0,0,1-.61-4.76,15.56,15.56,0,0,1,.8-4.54,15.08,15.08,0,0,1,2.11-4,12.89,12.89,0,0,1,3.28-3.14,9.28,9.28,0,0,1,3.59-1.61,20.91,20.91,0,0,1,4-.45,4.36,4.36,0,0,1,1.51.17,2.16,2.16,0,0,1,1.15.89,1.18,1.18,0,0,0,.38.35l.53.29a4.64,4.64,0,0,1,2.42,2,11,11,0,0,1,1,2.82,12.08,12.08,0,0,1-.26,4.69,20,20,0,0,1-1.89,4.91,16.85,16.85,0,0,1-3.11,4.11,8.47,8.47,0,0,1-3.85,2.27,21.82,21.82,0,0,1-4.07.39,12.33,12.33,0,0,1-3.94-.65,4.6,4.6,0,0,1-1.11-.68,5.72,5.72,0,0,1-.75-.88,10.12,10.12,0,0,1-.58-1,5.36,5.36,0,0,0-.61-1.13m8,2.06a4.68,4.68,0,0,0,1.59-1.09,13,13,0,0,0,1-1.32,21.34,21.34,0,0,0,1.83-3.95c.46-1.36.87-2.72,1.21-4.1a14.6,14.6,0,0,0,.24-3.15,17.87,17.87,0,0,0-.39-3.11c0-.22-.09-.45-.14-.7s-.31-.41-.73-.49l-.48.39-.54.42a16.08,16.08,0,0,0-4.14,6.17,19.88,19.88,0,0,0-1.09,7,5,5,0,0,0,.41,2,7.82,7.82,0,0,0,1.2,1.93"/><path class="cls-1" d="M232.86,219.05c-.31,1.43-.68,3.08-1.15,4.94s-.9,3.7-1.29,5.56-.71,3.63-.95,5.3a13.29,13.29,0,0,0-.05,4.07,14.45,14.45,0,0,0,1.54-1.67c.53-.67,1.07-1.38,1.59-2.11s1-1.42,1.49-2.09l1.17-1.7c.21-.81.38-1.68.56-2.6s.3-1.86.43-2.83.28-1.92.44-2.86.33-1.82.53-2.63a8.25,8.25,0,0,1,1.43-3,16.65,16.65,0,0,1,2.25-2.44,2.42,2.42,0,0,1,2.34-.61,2.55,2.55,0,0,1,1.79,1.81,5,5,0,0,1,.16,1.46c0,.46-.08.94-.15,1.43-.29,1.52-.54,3-.76,4.54s-.46,3.05-.71,4.63c-.17,1.12-.3,2.33-.39,3.62a2.71,2.71,0,0,0,0,.65c0,.28,0,.58,0,.92v1a5.82,5.82,0,0,0,.06.8,2.22,2.22,0,0,0,.9-.68,2.22,2.22,0,0,1,.78-.66,3.18,3.18,0,0,1,.27,1.78,2.36,2.36,0,0,1-.66,1.22,3.24,3.24,0,0,1-1.28.75,7.55,7.55,0,0,1-1.61.36,5.28,5.28,0,0,1-.91-.1l-1-.2a4.16,4.16,0,0,1-2.05-1.35,11.72,11.72,0,0,1-1.27-2,14.43,14.43,0,0,0-1.54,2.16c-.49.83-1,1.66-1.54,2.47a11.2,11.2,0,0,1-1.81,2.15,4.52,4.52,0,0,1-2.41,1.17c-.31,0-.64,0-1,0a8.62,8.62,0,0,1-1-.07,5.93,5.93,0,0,1-3.33-1.37,5.27,5.27,0,0,1-1.36-3.27,16.1,16.1,0,0,1,0-3.8,30.49,30.49,0,0,1,.66-3.82,35.2,35.2,0,0,1,1.14-3.75c.45-1.24.91-2.4,1.36-3.5a11.8,11.8,0,0,1,3.1-4.17,2.12,2.12,0,0,1,1.84-.67,9.51,9.51,0,0,1,2.37,1.15"/><path class="cls-1" d="M256.9,213.77c.54-.61,1.08-1.26,1.59-1.94A13.78,13.78,0,0,1,260.1,210a5.23,5.23,0,0,1,1.86-1.14,3.67,3.67,0,0,1,2.34,0l1.6.64a7.59,7.59,0,0,1,1.45.81,3.76,3.76,0,0,1,1.07,1.18,3.09,3.09,0,0,1,.42,1.63,6.34,6.34,0,0,1-1.46,4.27,2.1,2.1,0,0,1-1.89.87,11.89,11.89,0,0,1-2.2-.36,6.1,6.1,0,0,1-2-1c.19-.26.42-.55.68-.87a5.73,5.73,0,0,0,.68-1,4.25,4.25,0,0,0,.41-1.08,1.65,1.65,0,0,0-.11-1.05.5.5,0,0,0-.5,0,4,4,0,0,0-.29.3c-1.15,1.3-2.13,2.45-3,3.45a13.28,13.28,0,0,0-2.06,3.47,18.65,18.65,0,0,0-1.12,4.75,47.18,47.18,0,0,0-.13,7.28,3.6,3.6,0,0,1-.83,2,4.12,4.12,0,0,1-2.08,1,13.69,13.69,0,0,1-1.55.2,4.5,4.5,0,0,1-1.51-.17,3.85,3.85,0,0,1-.93-.57,1.18,1.18,0,0,1-.35-1q-.24-3.34-.22-7.9t.53-10.09a3.63,3.63,0,0,1,.52-2.24,5.67,5.67,0,0,1,1.47-1.61,5,5,0,0,1,1.94-.89,4.42,4.42,0,0,1,2,0,2.72,2.72,0,0,1,1.48.92,2.49,2.49,0,0,1,.55,1.9"/><path class="cls-1" d="M291.52,214c.76-3.12,1.45-6.25,2.09-9.35s1.27-6.15,1.89-9.11,1.27-5.83,1.93-8.59a70.48,70.48,0,0,1,2.33-7.77,1.68,1.68,0,0,1,1-1,2.2,2.2,0,0,1,1.44.24,2.73,2.73,0,0,1,1.43,2l1.34,8.23c.2,1.31.42,2.62.67,3.94s.46,2.63.67,3.94l.84,5.14.87,5.61a171.18,171.18,0,0,0,4.51-16.62q2-9.19,3.66-19.47a2.55,2.55,0,0,1,.3-.49c.1-.13.22-.28.32-.44a.87.87,0,0,1,.58-.2.54.54,0,0,1,.5.25l.39.81a2.67,2.67,0,0,1,.23.87,30.4,30.4,0,0,1,.44,3.95,33.51,33.51,0,0,1-.08,4c-.07,1-.11,1.93-.13,2.88a21.5,21.5,0,0,1-.24,2.86c-.28,1.79-.56,3.55-.86,5.27s-.61,3.49-.93,5.25c-.42,2.38-.95,4.74-1.57,7s-1.23,4.63-1.83,7c-.26.88-.54,1.75-.84,2.62s-.64,1.71-1,2.56a3.44,3.44,0,0,1-.6,1,3.87,3.87,0,0,1-1,.8,7,7,0,0,1-5.44,1.06,2.45,2.45,0,0,1-1.25-.64,2.42,2.42,0,0,1-.66-1.19,74.68,74.68,0,0,1-2.58-10.16,58.73,58.73,0,0,1-.87-9.47c-.29,2.06-.56,4.11-.81,6.12s-.55,4-.9,6-.76,3.93-1.24,5.89a52.21,52.21,0,0,1-1.81,5.87,2.15,2.15,0,0,1-.16.41,5.18,5.18,0,0,1-.58,1.16,2.62,2.62,0,0,1-.72.69,3,3,0,0,1-.95.37c-.37.09-.83.16-1.4.24a4.58,4.58,0,0,1-2.41-.22,4,4,0,0,1-1.63-1.44,11.77,11.77,0,0,1-2-3.65,28.64,28.64,0,0,1-1.51-6.81c-.22-2.32-.35-4.66-.35-7s0-4.93.08-7.38a43.79,43.79,0,0,1,.88-7.41,27.59,27.59,0,0,1,.86-3.24c.35-1.06.68-2.12,1-3.17a8.85,8.85,0,0,1,.51-1.12c.2-.33.39-.69.58-1.07a1,1,0,0,1,1.16-.57c.16,0,.32,0,.47.09l.42.1a1.34,1.34,0,0,1,1.21,1.31c0,.67,0,1.31.05,1.93a15.62,15.62,0,0,1-.07,1.92c-.06,1.48-.13,2.95-.2,4.4s-.13,2.95-.13,4.45c0,1.19,0,2.65.14,4.38s.29,3.52.5,5.36.43,3.64.69,5.35.54,3.14.8,4.27"/><path class="cls-1" d="M341.54,183.18c-.16,1.67-.29,3.24-.42,4.72s-.26,2.92-.39,4.3-.26,2.75-.38,4.08-.26,2.73-.41,4.16a7.23,7.23,0,0,0-.1,1.39,10.5,10.5,0,0,1,0,1.38l1,.63a1.41,1.41,0,0,1-1.7,1.1,9.76,9.76,0,0,1-2.93-.46,5.47,5.47,0,0,1-2.46-1.69c-.39.6-.78,1.25-1.2,2a13.45,13.45,0,0,1-1.38,2,6.64,6.64,0,0,1-1.7,1.46,3.58,3.58,0,0,1-2.17.42,15.5,15.5,0,0,1-3.81-.67,5.45,5.45,0,0,1-2.89-2.4,12.75,12.75,0,0,1-1.42-5.58,16.05,16.05,0,0,1,.87-5.6,17.54,17.54,0,0,1,2.65-5,16,16,0,0,1,3.95-3.72,9.48,9.48,0,0,1,7.1-1.19l1.77.35c.4-.36.76-.71,1.11-1s.68-.62,1-.93a2.74,2.74,0,0,1,1.36-.81,2.65,2.65,0,0,1,1.51.38,2.21,2.21,0,0,1,.53.35l.57.39m-7,4.41a9.27,9.27,0,0,0-4.11,2.79,17.85,17.85,0,0,0-3.05,4.83,18.51,18.51,0,0,0-1.44,5.65,10.18,10.18,0,0,0,.8,5.21,6,6,0,0,0,1.67-1.35,15,15,0,0,0,1.43-1.92c.43-.69.84-1.4,1.2-2.12s.73-1.33,1.05-1.88.41-1.41.65-2.37.5-2,.74-3.05.47-2.12.66-3.16a26.23,26.23,0,0,0,.4-2.63"/><path class="cls-1" d="M350.39,204.84a33.57,33.57,0,0,0,.71,3.35,6.54,6.54,0,0,0,1.76,3,2.27,2.27,0,0,0,1.55-.84,8.84,8.84,0,0,0,.79-1.54,17.58,17.58,0,0,0,1.27-5.51c.15-1.93.21-3.79.21-5.56a5.83,5.83,0,0,1-2.22,1.9,10.35,10.35,0,0,1-3.2,1,11.37,11.37,0,0,1-3.34.06,5.65,5.65,0,0,1-2.66-1,3.18,3.18,0,0,1-1.45-2.93c.17-2.55.39-5,.66-7.28a65.11,65.11,0,0,1,1.24-7,6.31,6.31,0,0,1,.61-1.43,13.85,13.85,0,0,1,1.06-1.6,5.41,5.41,0,0,1,1.31-1.23,1.92,1.92,0,0,1,1.39-.35,2.29,2.29,0,0,1,1.66,1.34,4.9,4.9,0,0,1,.26,2.09c-.1,1.22-.25,2.5-.42,3.86s-.34,2.72-.49,4.1-.28,2.72-.4,4a32,32,0,0,0-.1,3.74,1.91,1.91,0,0,0,1.86.17A6.8,6.8,0,0,0,354.5,196a9.47,9.47,0,0,0,1.66-1.76,4.06,4.06,0,0,0,.77-1.58c.14-1.19.3-2.37.45-3.52s.29-2.32.45-3.51c0-.45.13-1,.24-1.75s.26-1.43.42-2.17.34-1.47.53-2.15a7.68,7.68,0,0,1,.59-1.68c.28-.47.57-1,.89-1.42a16.32,16.32,0,0,1,1.07-1.36,3.87,3.87,0,0,1,1.62-1.2,7.57,7.57,0,0,1,2-.49c1.26-.1,1.8.38,1.61,1.47l-.25.85a37,37,0,0,0-1,4c-.31,1.46-.57,3-.78,4.46s-.4,3-.53,4.46-.2,2.78-.23,4c-.07,1.55-.19,3.21-.35,5a44.41,44.41,0,0,1-.77,5.1,23.16,23.16,0,0,1-1.49,4.6,10.28,10.28,0,0,1-2.62,3.56q-4.38,3.36-9,2.14a3.42,3.42,0,0,1-2.67-1.73,4.52,4.52,0,0,1-.4-2.82,5.32,5.32,0,0,1,1.31-2.6,2.72,2.72,0,0,1,2.4-1"/><path class="cls-1" d="M25,269.44a21.08,21.08,0,0,1-18.19-10c-4.38-6.8-6.61-16-6.82-28a221.72,221.72,0,0,1,2.06-32.81c1.5-11.36,3.28-22.15,5.3-32.06s3.66-17.39,5-22.62l1.14-4.65a1.59,1.59,0,0,1,.67-.9L18.29,136a33.72,33.72,0,0,1,21.85-4.83,109.71,109.71,0,0,1,23.27-11.39,47.7,47.7,0,0,1,14.76-2.71c8.7,0,14,3.64,16.87,6.69,3.66,3.88,7.2,10.61,4.41,21.21a30.16,30.16,0,0,1,3-.85,24,24,0,0,1,10.72-.18l1.34-.81a33.65,33.65,0,0,1,21.7-4.91c.32,0,.64.07,1,.13l.22-1.67a1.45,1.45,0,0,1,.68-1.05l4.61-2.83a35.47,35.47,0,0,1,21.82-5.1,28,28,0,0,1,15.74,6.15c.5-2.11.95-4.16,1.37-6.15l.14-.65.05-.16.2-.63c1.83-5.49,6.34-8.64,9.55-10.53a39.92,39.92,0,0,1,10.21-4.26,23.2,23.2,0,0,1,5.65-.77c.49,0,1,0,1.55.08l1.59-1a34.15,34.15,0,0,1,21.38-5,27.52,27.52,0,0,1,5.52,1.07c.18-.23.35-.45.51-.68.28-.41,7.92-11.4,24.31-11.91a24.55,24.55,0,0,1,3.88.22,26.16,26.16,0,0,1,9,2.63A64,64,0,0,1,279.32,91,37.18,37.18,0,0,1,297.1,79.35l1-.29a.82.82,0,0,1,.26,0l2.2-.15a12,12,0,0,1,2.45.25c.83-.61,1.67-1.21,2.53-1.76,6.12-3.89,12.41-5.62,18.55-5.13l.87.1a21.89,21.89,0,0,1,8.37,3c2.11-13.85,4.19-23.6,6.36-29.82,3.27-9.11,7.68-16.29,13.12-21.33,6.1-5.66,12.79-8.8,19.82-9.29.68-.05,1.32-.08,1.95-.08a25.88,25.88,0,0,1,15.95,5.41,43.18,43.18,0,0,1,11.2-13.3c6.06-4.6,12.45-6.94,19-6.94a26.42,26.42,0,0,1,5.17.51c6,1.18,14.33,5,19.74,16.28,2.72,5.7,3.93,12.45,3.67,20.57a67.12,67.12,0,0,1,7.25-5.84,63.74,63.74,0,0,1,21.13-9.84,44.18,44.18,0,0,1,9.9-1.25c6,0,11,1.61,14.87,4.8,5.87,4.77,8.81,11.87,8.3,20a41.58,41.58,0,0,1-5.31,17.43A42.54,42.54,0,0,1,497.62,73a20.15,20.15,0,0,1,7.09,16.63c-.46,7.56-4.37,14.59-11.6,20.94a63.75,63.75,0,0,1-21.71,12.08l-.29.09a53.59,53.59,0,0,1-16,2.72c-.91,0-1.83,0-2.7-.11a25.28,25.28,0,0,1-13.7-4.72,44.82,44.82,0,0,1-9.89,12,43.08,43.08,0,0,1-19.8,10l-.7.12a24.11,24.11,0,0,1-16-3c-9.89,10.75-19.67,16-29.88,16a30.9,30.9,0,0,1-4-.27c-5.78-.82-16-4.1-22.3-16.71a85.07,85.07,0,0,1-14.92,21.28,56.58,56.58,0,0,1-24.51,15.4l-.23.08c-7.52,2.12-14.72,1.48-20.92-1.83-5.82-3.11-10.05-8.46-12.54-15.9H262A23.4,23.4,0,0,1,250.31,154c-.28.64-.55,1.28-.82,1.92a.67.67,0,0,0,0,.1c-.31,1.67-.67,4.1-1.09,7.15a60.35,60.35,0,0,0-.58,7.25,13.23,13.23,0,0,1,1.07,13.86,17.2,17.2,0,0,1-2.44,3.54l-.23.26a36.41,36.41,0,0,1-11.69,8.57,27.37,27.37,0,0,1-15.56,2.5c-6.77-1-12.38-5.1-15.78-11.6l-.28-.57a95.26,95.26,0,0,1-9.58,14.8c-6.37,8-14.11,13.53-23,16.33l-.51.15a24.73,24.73,0,0,1-6.3.85,22.07,22.07,0,0,1-9.29-2.07c-.38.4-.71.74-1,1l-.51.45C142.59,227,134.38,231,126.9,231h-.38a21.59,21.59,0,0,1-12.77-4.26c-.86,1.12-1.75,2.21-2.65,3.24C103.54,238.62,96,243.71,88,245.52l-.42.08a21.32,21.32,0,0,1-20.8-7.06c-3.75-4.36-6.24-10.17-7.35-17.29-.09-.5-.16-1-.22-1.54a7.69,7.69,0,0,0-3.69-.21,26,26,0,0,0-6.79,1.89c-.45.18-.88.39-1.28.59-1.14,7.08-1.94,13.35-2.36,18.67a38.67,38.67,0,0,0-.13,6.68,13.68,13.68,0,0,1-6.45,18.61l-.37.18A29.66,29.66,0,0,1,25,269.44M16.17,140.63l-1,4.05c-1.29,5.19-2.94,12.77-4.92,22.5S6.46,187.75,5,199.06a220.13,220.13,0,0,0-2,32.38c.21,11.46,2.28,20.1,6.37,26.44A18.2,18.2,0,0,0,25,266.57a28,28,0,0,0,11.89-3l.32-.16a11,11,0,0,0,6.13-7.74,10.85,10.85,0,0,0-1.09-7.17,1.48,1.48,0,0,1-.16-.49,39.45,39.45,0,0,1,.08-7.53c.45-5.56,1.3-12.16,2.52-19.59a1.45,1.45,0,0,1,.68-1,16.12,16.12,0,0,1,2.24-1.11,29,29,0,0,1,7.52-2.08c2.69-.35,4.74-.05,6.22,1a1.5,1.5,0,0,1,.64,1c.09.74.19,1.47.29,2.18,1,6.57,3.28,11.9,6.68,15.84a18.6,18.6,0,0,0,18,6.1l.37-.07c7.33-1.66,14.38-6.45,21.53-14.65,1.16-1.33,2.31-2.77,3.39-4.27a1.5,1.5,0,0,1,1-.59,1.45,1.45,0,0,1,1.12.34,18.51,18.51,0,0,0,12.12,4.52h.34c6.75,0,14.36-3.75,24-11.81l.39-.35a13.35,13.35,0,0,0,1.47-1.58,1.44,1.44,0,0,1,1.81-.38,19.27,19.27,0,0,0,9,2.25,21.18,21.18,0,0,0,5.52-.74l.45-.13c8.3-2.61,15.56-7.79,21.57-15.35a94.27,94.27,0,0,0,10.68-17.09,1.43,1.43,0,0,1,1.38-.81,1.45,1.45,0,0,1,1.29.94,30.64,30.64,0,0,0,1.38,3.18c3,5.64,7.78,9.23,13.6,10.06A24.56,24.56,0,0,0,233.31,194a33.81,33.81,0,0,0,10.76-7.89l.21-.22a14.26,14.26,0,0,0,2-2.93,10.3,10.3,0,0,0-1.07-11.14,1.34,1.34,0,0,1-.32-.93,67.4,67.4,0,0,1,.61-8.14c.42-3.11.8-5.56,1.12-7.32l0-.31a1.55,1.55,0,0,1,.08-.23c.52-1.23,1-2.47,1.58-3.69a1.5,1.5,0,0,1,1-.83,1.52,1.52,0,0,1,1.25.25,20.44,20.44,0,0,0,11.52,4.14,17.82,17.82,0,0,0,1.93,0,1.43,1.43,0,0,1,1.47,1c2.21,7.23,6.06,12.36,11.46,15.24s12,3.51,18.74,1.6l.2-.06A53.73,53.73,0,0,0,319.12,158a83.45,83.45,0,0,0,15.65-23.14,1.59,1.59,0,0,1,1.37-.95h0a1.46,1.46,0,0,1,1.37.82c5.27,13,14.51,16.85,21.32,17.82a24.72,24.72,0,0,0,3.55.25c9.61,0,19-5.22,28.54-15.94a1.46,1.46,0,0,1,1.91-.23,20.92,20.92,0,0,0,15.08,3.22l.53-.08a40.32,40.32,0,0,0,18.47-9.33A41,41,0,0,0,437,117.73a1.45,1.45,0,0,1,2.27-.42c3.34,3,7.84,4.75,13.38,5.16,5.17.38,11-.44,17.59-2.49l.25-.08a60.71,60.71,0,0,0,20.7-11.51c6.64-5.81,10.21-12.19,10.62-18.93.26-4.18-.8-10.23-7.28-15.25a1.45,1.45,0,0,1-.57-1.11,1.47,1.47,0,0,1,.5-1.13,39,39,0,0,0,8.45-10.68,38.21,38.21,0,0,0,4.94-16.21c.45-7.15-2.12-13.37-7.23-17.54h0c-3.39-2.76-7.77-4.15-13-4.15a42,42,0,0,0-9.22,1.16A60.64,60.64,0,0,0,458.17,34a63.4,63.4,0,0,0-9.53,8.15A1.45,1.45,0,0,1,446.15,41c.79-9.31-.26-16.79-3.16-22.88-4.9-10.25-12.31-13.64-17.67-14.69C418,2,410.47,4,403.49,9.33a41.64,41.64,0,0,0-11.25,13.89,1.46,1.46,0,0,1-1,.75,1.41,1.41,0,0,1-1.22-.33,23,23,0,0,0-15.41-5.83c-.57,0-1.15,0-1.75.06-6.36.45-12.43,3.31-18,8.53-5.1,4.72-9.25,11.5-12.35,20.16-2.13,6.1-4.2,15.84-6.29,29.77-.06.35-.1.7-.14,1l-.11.79a1.45,1.45,0,0,1-2.34.94,19,19,0,0,0-9-3.83l-.67-.08c-5.52-.45-11.19,1.15-16.77,4.7a34.84,34.84,0,0,0-2.84,2,1.46,1.46,0,0,1-1.25.26,10,10,0,0,0-2.46-.31h-.51l-1.29.12-.9.26A34.22,34.22,0,0,0,281.47,93a57.83,57.83,0,0,0-4.58,5.91,1.43,1.43,0,0,1-1.91.44,23.24,23.24,0,0,0-9.1-2.9,24.88,24.88,0,0,0-3.47-.2c-14.85.47-22,10.61-22,10.71-.42.55-.78,1-1.15,1.54a1.46,1.46,0,0,1-1.65.52,24.69,24.69,0,0,0-5.87-1.25,31.28,31.28,0,0,0-19.59,4.64l-2,1.23a1.39,1.39,0,0,1-.93.2,16.06,16.06,0,0,0-1.73-.11,19.79,19.79,0,0,0-4.92.67,37.24,37.24,0,0,0-9.48,3.93c-2.81,1.66-6.74,4.39-8.26,9l-.31,1.12c-.58,2.76-1.23,5.67-2,8.63a1.48,1.48,0,0,1-1,1.06,1.43,1.43,0,0,1-1.42-.38,24.43,24.43,0,0,0-15.79-7,32.64,32.64,0,0,0-20.06,4.68l-4,2.47-.34,2.5a1.45,1.45,0,0,1-.59,1,1.5,1.5,0,0,1-1.14.25c-.85-.17-1.56-.29-2.25-.36a30.81,30.81,0,0,0-19.86,4.5l-1.84,1.12a1.52,1.52,0,0,1-1.12.17,20.93,20.93,0,0,0-10,.05,30.35,30.35,0,0,0-5.38,1.8,1.47,1.47,0,0,1-1.57-.26,1.45,1.45,0,0,1-.37-1.54c3-8.65,2-16-2.89-21.17-2.5-2.64-7.09-5.8-14.76-5.8a45,45,0,0,0-13.85,2.58A108.06,108.06,0,0,0,41.21,134a1.37,1.37,0,0,1-1,.2,30.78,30.78,0,0,0-20.47,4.38ZM68.71,178.5a1.48,1.48,0,0,1-.8-.25,16.34,16.34,0,0,0-11.15-2.54l-.32,0s-.57.11-.71.15a1.47,1.47,0,0,1-1.34-.39,1.45,1.45,0,0,1-.39-1.34c.39-1.79.77-3.51,1.14-5.2a1.53,1.53,0,0,1,.85-1c5.27-2.26,10.33-4.2,15-5.74a44.06,44.06,0,0,1,7.63-1.91,1.4,1.4,0,0,1,1.46.75,1.42,1.42,0,0,1-.19,1.64,68.23,68.23,0,0,0-9.58,14.36l-.31.64a1.52,1.52,0,0,1-.93.77,1.58,1.58,0,0,1-.38,0M59,172.67A18.93,18.93,0,0,1,68.1,175a71,71,0,0,1,7-11c-.91.25-2,.57-3.17,1-4.41,1.45-9.15,3.24-14.1,5.36-.18.8-.35,1.6-.54,2.41a17.06,17.06,0,0,1,1.71-.09M435.34,96.49a1.52,1.52,0,0,1-.65-.16,10.28,10.28,0,0,0-6.23-1,1.42,1.42,0,0,1-1.4-.59,1.46,1.46,0,0,1-.11-1.52c1.61-3.12,3.24-6.21,4.89-9.31a1.41,1.41,0,0,1,1.43-.75,1.46,1.46,0,0,1,1.25,1,21.62,21.62,0,0,0,3.73,7.29,1.47,1.47,0,0,1,0,1.82,15.86,15.86,0,0,0-1.6,2.44,1.5,1.5,0,0,1-1.3.78m-4.66-4.2a13.41,13.41,0,0,1,4.05.88c.18-.3.37-.57.54-.83a25.14,25.14,0,0,1-2.41-4.23c-.71,1.39-1.45,2.79-2.18,4.18"/><path class="cls-1" d="M42.55,144.91Q56.47,135.63,67.46,132q13.5-4.42,18.24.61T83.55,149.9c-.27.42-.56.59-.92.52q-4.8-.91-14.75,2.34a201.4,201.4,0,0,0-21.31,8.48c-.06.45-.14.92-.24,1.38q-3.46,15.31-7.79,36.65A34.49,34.49,0,0,1,46,192a53.37,53.37,0,0,1,7.59-4.6A25.28,25.28,0,0,1,58,185.59,6.35,6.35,0,0,1,64,188c1.56,1.92,2.31,4.55,2.22,7.92S64.76,203,62.09,207c-.31.39-.61.53-.92.38-1.54-.83-4-1-7.25-.62a39.41,39.41,0,0,0-10.11,2.76,21.78,21.78,0,0,0-8.23,5.65q-2.49,14.1-3.3,24.46t1,13.28a.88.88,0,0,1,.25.78c0,.27-.35.53-.91.82q-10.51,4.92-15-2.09t-4.78-21.23a208.46,208.46,0,0,1,2-30.9Q17,183.63,20,169.13c2-9.66,3.59-17,4.84-22.08,6-3.49,11.88-4.22,17.75-2.14"/><path class="cls-1" d="M121.24,154.09A21,21,0,0,1,134.81,151q7.17.81,9.94,7.12c-.29,2.23-.81,5.33-1.58,9.32q-1.44,7.67-2.66,16.48a69.73,69.73,0,0,0-.63,15.52q.62,6.69,4.61,7.93a1.12,1.12,0,0,1,.45.1.31.31,0,0,1,.17.38,1.88,1.88,0,0,1-.65.84q-11.4,9.6-17.7,9.48t-8.71-6.7q-2.44-6.58-2.37-16.46-5.75,16.81-14.24,26.54T85.19,233a8.52,8.52,0,0,1-8.63-2.8c-2.2-2.54-3.66-6.19-4.4-10.91a54.47,54.47,0,0,1,.13-16,70.36,70.36,0,0,1,7-21.82,58.71,58.71,0,0,1,15-19,28,28,0,0,1,11.14-5.86c3.6-.83,6.44-.27,8.53,1.71s2.8,5.64,2.16,11q-9.5.52-15.06,6.92a34.61,34.61,0,0,0-7.59,14.38q-2,8-.91,13.39t4.88,4c2.51-.93,5.8-5.52,9.85-13.81s8.72-21.69,14-40.16"/><path class="cls-1" d="M163.51,140.51q7.76.63,11.62,6.73c0,4.86-.08,10.37-.35,16.5q-.37,8.1-.42,15.73.16,7.56,2.45,4.75c1.53-1.87,3.37-5.84,5.57-11.92s4.37-13,6.55-20.63,3.94-14.79,5.3-21.34c.35-1,1.64-2.21,3.87-3.52a26.75,26.75,0,0,1,6.9-2.88c2.36-.61,4-.45,4.78.48-.18.79-.37,1.6-.59,2.44q-2.08,9.42-5.43,21.61a206,206,0,0,1-8.35,24.26,87.9,87.9,0,0,1-12.16,21.08q-7.17,9-16.8,12.07-7.17,1.92-12-5.2T148.19,179q-1.5-14.62,1.27-35.2a22.52,22.52,0,0,1,14-3.24"/><path class="cls-1" d="M237.07,152.31a8.37,8.37,0,0,1-.19,1.14c-.36,2-.77,4.62-1.23,8a74.1,74.1,0,0,0-.71,9.63c0,3.08.49,5.15,1.52,6.26a4.42,4.42,0,0,0,.63.43,1.33,1.33,0,0,1,.35.28c.08.09.07.25,0,.45a5.72,5.72,0,0,1-.69.92,24,24,0,0,1-7.61,5.59,14.64,14.64,0,0,1-8.32,1.44c-2.66-.38-4.72-2-6.21-4.83-2.19-4.32-3.28-11.49-3.22-21.45s2-23.1,6-39.37a21.27,21.27,0,0,1,13.45-3.21c4.73.45,8.15,2.64,10.21,6.58a89.19,89.19,0,0,1,9.92-14.53s0-.1,0-.14a.09.09,0,0,0,.06-.11,21.44,21.44,0,0,1,13.81-3.15,11.74,11.74,0,0,1,10.14,7.31c-2.44,7.79-3.83,13.71-4.2,17.81s.19,7,1.67,8.79c-3.22,3.27-6.53,4.84-9.89,4.69s-6.29-1.79-8.74-4.94-4-7.65-4.49-13.52q-6.63,12.61-12.18,26"/><path class="cls-1" d="M312.49,88.2q5.6-3.56,10.61-3.17a8.47,8.47,0,0,1,6.54,4.42,21.67,21.67,0,0,1,2.49,8.73,53.54,53.54,0,0,1,0,9.31,72,72,0,0,1-6.4,23.13A73.06,73.06,0,0,1,312,151a43.75,43.75,0,0,1-19,12q-6.45,1.83-11.35-.8t-7-10.4c-1.38-5.18-1.32-12.32.16-21.37A70.67,70.67,0,0,1,280,113.61,54.55,54.55,0,0,1,289,99.46a24.38,24.38,0,0,1,11.64-7.75c.19,0,.42.34.68,1.08a25.76,25.76,0,0,1,.74,2.54c.23,1,.42,1.76.58,2.38a3.76,3.76,0,0,1,.13.61,31.84,31.84,0,0,1,9.77-10.12M300,119.91a86.79,86.79,0,0,0-2.12,11.52,29.36,29.36,0,0,0,.23,9.92c.63,2.6,2.07,3.58,4.3,3q3.21-1.23,6-6.13a52.61,52.61,0,0,0,4.72-11.2,54.8,54.8,0,0,0,2.28-11.8,27.87,27.87,0,0,0-.38-7.77q-.67-3.11-2.61-3.33c-1.08,0-2.25,1.26-3.52,3.84s-1.68,6.15-1.26,10.76v.07a2.4,2.4,0,0,0,0,.28.14.14,0,0,1-.1.17.81.81,0,0,1-.41,0,5.45,5.45,0,0,1-2.92-2.7,11.56,11.56,0,0,1-1.53-4.27,32.89,32.89,0,0,0-2.73,7.68"/><path class="cls-1" d="M442.87,76.6a37.72,37.72,0,0,1,6.29-19.42,53.58,53.58,0,0,1,14.22-14.6,50.74,50.74,0,0,1,16.84-7.92q9.66-2.17,13.61,1.05t3.59,9.19a28.64,28.64,0,0,1-3.73,12,28.14,28.14,0,0,1-8.25,9.53c-3.27,2.31-6.59,2.87-9.93,1.62-.4-.15-.65-.35-.71-.6s.13-.64.63-1.19a15.57,15.57,0,0,0,3.13-5.52,14.68,14.68,0,0,0,1-5.73c-.11-1.59-.87-2.22-2.26-1.84s-2.63,1.82-4,4a29,29,0,0,0-3.37,7.34,12,12,0,0,0-.39,7,8.22,8.22,0,0,0,3.93,4.62,30,30,0,0,0,6.09,2.37c1.06.32,2.09.67,3.11,1q9.15,3.63,8.77,9.69t-7.25,12a50.52,50.52,0,0,1-17.36,9.58A38.48,38.48,0,0,1,452.84,113c-4-.29-6.72-1.47-8.3-3.54s-1.47-4.94.36-8.62c.34-.64.61-1,.83-1s.48.07.8.34a1.83,1.83,0,0,0,.39.31,14.6,14.6,0,0,0,7.73,2.21,26.41,26.41,0,0,0,8.4-1c2.53-.76,4.05-1.7,4.59-2.83s-.7-2.23-3.68-3.29c-.65-.21-1.33-.42-2-.61a63.25,63.25,0,0,1-8.51-3.13,21,21,0,0,1-7.51-5.58q-3.07-3.55-3-9.61"/><path class="cls-1" d="M392.39,118.6q-17.59,26.09-32.15,24t-16.55-25.76A212,212,0,0,1,346,77.74q3-19.77,5.85-28,3.84-10.68,9.72-16.14t12-5.9q7.85-.52,12.9,6.74t3.72,22a95.74,95.74,0,0,1-8.12,27.3A178.49,178.49,0,0,1,368,109c-.31,7.62,1,12.4,3.94,14.31s9-2.63,18.32-13.65l-.4-6.48a175.32,175.32,0,0,1,.58-26.44q1.32-13.86,3.46-25.25a123.08,123.08,0,0,1,4-16.6q4.56-12.36,11.62-17.76c4.71-3.59,9.36-4.94,13.91-4.05S431.54,17,434,22.3s3.09,12.62,1.74,22.13-5.56,21-12.65,34.61q-4.47,8.35-8.84,17-.48,6.75,1.6,10c1.38,2.2,3.21,3.13,5.48,2.81a16.72,16.72,0,0,0,7.09-3.05q1.46-1.09,1.8-.66a2,2,0,0,1,.12,1.59c-.16.77-.37,1.57-.61,2.42a30.59,30.59,0,0,1-9.32,13.56,30.21,30.21,0,0,1-13.87,7.12c-5.53.75-9.59-1.41-12.14-6.53a35.42,35.42,0,0,1-2.05-4.78M379.12,49.35q-1.75.1-3.51,6.12a142.82,142.82,0,0,0-3.33,14.47c-1,5.63-1.9,10.92-2.61,15.87s-1.14,8.42-1.3,10.36a83.37,83.37,0,0,0,6.05-12.56,135.74,135.74,0,0,0,5-15.33,60.57,60.57,0,0,0,2.2-13.1c.11-3.59-.73-5.54-2.52-5.83m46.06-14.83c-1.18.07-2.34,2.1-3.52,6.13a142.82,142.82,0,0,0-3.33,14.47q-1.56,8.45-2.61,15.88t-1.4,11.46a149.93,149.93,0,0,0,6.15-13.69,139.88,139.88,0,0,0,5-15.32,60,60,0,0,0,2.19-13.11c.11-3.6-.74-5.53-2.52-5.82"/></g></g></svg>