<?xml version="1.0" encoding="utf-8"?>
<!-- Generator: Adobe Illustrator 24.0.1, SVG Export Plug-In . SVG Version: 6.00 Build 0)  -->
<svg version="1.1" id="Layer_1" xmlns="http://www.w3.org/2000/svg" xmlns:xlink="http://www.w3.org/1999/xlink" x="0px" y="0px"
	 viewBox="0 0 24 24" style="enable-background:new 0 0 24 24;" xml:space="preserve">
<style type="text/css">
	.st0{fill:#FFFFFF;}
</style>
<title>menu</title>
<desc>Created with Sketch.</desc>
<g id="Page-1">
	<g id="menu">
		<path id="Shape" class="st0" d="M12,0C5.4,0,0,5.4,0,12s5.4,12,12,12c1.8,0,3.5-0.4,5-1.1v-2.3c-1.5,0.9-3.2,1.4-5,1.4
			C6.5,22,2,17.5,2,12S6.5,2,12,2c1,0,2,0.2,3,0.5c0.3-0.6,0.7-1.2,1.2-1.7C14.8,0.3,13.5,0,12,0z M20,0.9c-1.3,0-2.3,0.9-3,2
			s-1,2.4-1,3.7s0.4,2.4,1.2,3.2c0.5,0.5,1.2,0.8,1.8,1V23h2V10.7c0.7-0.2,1.3-0.4,1.8-1C23.6,9,24,7.9,24,6.6S23.6,4,23,2.9
			S21.3,0.9,20,0.9z M20,2.9c0.3,0,0.8,0.3,1.3,1S22,5.7,22,6.6S21.7,8,21.4,8.4c-0.3,0.3-0.8,0.5-1.4,0.5s-1.1-0.2-1.4-0.5
			C18.3,8,18,7.5,18,6.6s0.3-1.9,0.7-2.6S19.7,2.9,20,2.9z M12,4c-4.4,0-8,3.6-8,8s3.6,8,8,8v-2c-3.3,0-6-2.7-6-6s2.7-6,6-6
			c0.7,0,1.4,0.1,2,0.4c0-0.7,0.1-1.4,0.3-2C13.6,4.1,12.8,4,12,4z"/>
	</g>
</g>
</svg>
