<?xml version="1.0" encoding="utf-8"?>
<!-- Generator: Adobe Illustrator 24.0.1, SVG Export Plug-In . SVG Version: 6.00 Build 0)  -->
<svg version="1.1" id="Layer_1" xmlns="http://www.w3.org/2000/svg" xmlns:xlink="http://www.w3.org/1999/xlink" x="0px" y="0px"
	 viewBox="0 0 135 40" style="enable-background:new 0 0 135 40;" xml:space="preserve">
<style type="text/css">
	.st0{fill:#E23744;}
	.st1{fill:#FFFFFF;}
</style>
<title>2</title>
<desc>Created with Sketch.</desc>
<path id="Path" class="st0" d="M130.1,40H5.1c-2.8,0-5-2.2-5-5V5c0-2.8,2.2-5,5-5h125c2.8,0,5,2.2,5,5v30
	C135.1,37.7,132.9,40,130.1,40z"/>
<path id="Shape" class="st0" d="M130,0.8c2.3,0,4.2,1.9,4.2,4.2v30c0,2.3-1.9,4.2-4.2,4.2H5c-2.3,0-4.2-1.9-4.2-4.2V5
	c0-2.3,1.9-4.2,4.2-4.2L130,0.8 M130,0H5C2.2,0,0,2.2,0,5v30c0,2.8,2.2,5,5,5h125c2.8,0,5-2.2,5-5V5C135,2.3,132.8,0,130,0L130,0z"
	/>
<rect id="Rectangle-2-Copy-4_1_" x="96.1" y="-93.5" class="st0" width="87.2" height="57.4"/>
<g>
	<path class="st1" d="M30.8,14.1l-0.1,3.1l-8,8.7c3.3,0,5.5,0,6.7-0.1c-0.4,1.6-0.6,3-0.9,5c-1.6-0.1-4.1-0.2-6.6-0.2
		c-2.8,0-5.2,0-7.2,0.2l0.1-3.1l8-8.6c-3.5,0-4.8,0-6.2,0.1c0.3-1.5,0.5-3.3,0.8-5c2.5,0.1,3.5,0.1,6.8,0.1
		C27.2,14.2,28.9,14.2,30.8,14.1z"/>
	<path class="st1" d="M39.9,13.2c-5.2,0-9.2,4.6-9.2,10.2c0,4.2,2.4,7.4,7.1,7.4c5.2,0,9.2-4.6,9.2-10.2
		C47,16.4,44.7,13.2,39.9,13.2z M38.3,26.3c-1.2,0-1.8-1-1.8-3.1c0-3.1,1.3-5.5,2.8-5.5c1.1,0,1.8,1,1.8,3.1
		C41.1,23.8,39.9,26.3,38.3,26.3z"/>
	<path class="st1" d="M113.4,12.9c-5.3,0-9.3,4.7-9.3,10.3c0,4.2,2.4,7.5,7.2,7.5c5.3,0,9.3-4.7,9.3-10.4
		C120.6,16.2,118.2,12.9,113.4,12.9z M111.7,26.3c-1.2,0-1.8-1-1.8-3.1c0-3.1,1.3-5.5,2.8-5.5c1.1,0,1.8,1,1.8,3.1
		C114.5,23.8,113.2,26.3,111.7,26.3z"/>
	<path class="st1" d="M74,19.2c0.4-2.9,0.2-5.5-3-5.5c-2.3,0-4.8,2-6.6,5.2c0.4-2.7,0.2-5.2-3-5.2c-2.4,0-4.9,2.1-6.7,5.5
		c0.4-2.2,0.4-4.7,0.2-5.3c-1.8,0.3-3.4,0.5-5.7,0.5c0.1,1.5,0,3.6-0.3,5.5l-0.7,5c-0.3,2-0.6,4.3-0.9,5.7h6c0-0.9,0.3-2.3,0.4-3.5
		l0.5-3.5c0.4-2.3,2.2-4.9,3.6-4.9c0.8,0,0.8,0.8,0.5,2.2L57.7,25c-0.3,2-0.6,4.3-0.9,5.7h6c0-0.9,0.2-2.3,0.4-3.5l0.5-3.5
		c0.4-2.3,2.2-4.9,3.6-4.9c0.8,0,0.8,0.7,0.6,1.8l-1.4,10.1H72L74,19.2z"/>
	<path class="st1" d="M102.8,25.5l-0.6,4c-1,0.5-2.9,1.3-5,1.3c-3.7,0-4.4-2-3.8-6.1l0.9-6.7h-1.8l0.5-4.3l2-0.1l0.7-3.1l5.5-2.1
		l-0.7,5.2h3.8c-0.1,0.5-0.6,3.5-0.7,4.4h-3.7l-0.8,6.2c-0.2,1.6-0.1,2.2,1,2.2C100.9,26.3,102.1,25.8,102.8,25.5z"/>
	<path id="a-copy-7_8_" class="st1" d="M81.7,27.6c2-0.3,3.4-2.2,3.7-4.1l0.1-0.5c-0.9-0.2-2.1-0.3-3.3-0.2
		c-1.2,0.1-2.1,0.6-2.6,1.3c-0.4,0.5-0.6,1.1-0.5,1.8C79.2,27,80.4,27.8,81.7,27.6z M80,30.7c-2.9,0.4-4.7-0.8-5.3-3.4
		c-0.4-1.6,0.1-3.5,1-4.6c1.1-1.4,3-2.4,5.3-2.6c1.8-0.2,3.4-0.1,4.8,0.2l0.1-0.2c0-0.4,0.1-0.8,0-1.3c-0.2-1.2-1.1-1.9-3.5-1.7
		c-1.6,0.2-3.1,0.8-4.3,1.4L77,15.1c1.6-0.9,3.6-1.6,5.9-1.9c4.4-0.5,7.5,0.9,7.9,4.1c0.1,0.9,0.1,1.8,0,2.6c-0.6,4-0.9,7-1.1,9
		c0,0.3,0,0.9,0,1.6h-5.5c0.1-0.3,0.2-0.7,0.3-1.3c0.1-0.4,0.1-0.8,0.1-1.3C83.6,29.5,82,30.4,80,30.7z"/>
</g>
</svg>
