<?xml version="1.0" encoding="utf-8"?>
<!-- Generator: Adobe Illustrator 24.0.1, SVG Export Plug-In . SVG Version: 6.00 Build 0)  -->
<svg version="1.1" id="livetype" xmlns="http://www.w3.org/2000/svg" xmlns:xlink="http://www.w3.org/1999/xlink" x="0px" y="0px"
	 viewBox="0 0 119.7 40" style="enable-background:new 0 0 119.7 40;" xml:space="preserve">
<style type="text/css">
	.st0{fill:#F37C2A;}
	.st1{fill:#FFFFFF;}
</style>
<title>Download_on_the_App_Store_Badge_US-UK_RGB_blk_4SVG_092917</title>
<path class="st0" d="M110.1,0H9.5C9.2,0,8.8,0,8.4,0C8.1,0,7.8,0,7.5,0c-0.7,0-1.3,0.1-2,0.2C4.9,0.3,4.2,0.5,3.6,0.8S2.5,1.5,2,2
	S1.1,3,0.8,3.6S0.3,4.9,0.2,5.5C0.1,6.2,0,6.9,0,7.5c0,0.3,0,0.6,0,0.9v23.1c0,0.3,0,0.6,0,0.9c0,0.7,0.1,1.3,0.2,2s0.3,1.3,0.6,1.9
	C1.1,37,1.5,37.5,2,38s1,0.9,1.6,1.2s1.2,0.5,1.9,0.6s1.3,0.2,2,0.2c0.3,0,0.6,0,0.9,0c0.4,0,0.7,0,1.1,0h100.6c0.4,0,0.7,0,1.1,0
	c0.3,0,0.6,0,0.9,0c0.7,0,1.3-0.1,2-0.2c0.7-0.1,1.3-0.3,1.9-0.6s1.1-0.7,1.6-1.2s0.9-1,1.2-1.6c0.3-0.6,0.5-1.2,0.6-1.9
	s0.2-1.3,0.2-2c0-0.3,0-0.6,0-0.9c0-0.4,0-0.7,0-1.1v-21c0-0.4,0-0.7,0-1.1c0-0.3,0-0.6,0-0.9c0-0.7-0.1-1.3-0.2-2s-0.3-1.3-0.6-1.9
	c-0.6-1.2-1.6-2.2-2.8-2.8c-0.6-0.3-1.2-0.5-1.9-0.6c-0.7-0.1-1.3-0.2-2-0.2c-0.3,0-0.6,0-0.9,0C110.9,0,110.5,0,110.1,0L110.1,0z"
	/>
<path class="st0" d="M8.5,39.1c-0.3,0-0.6,0-0.9,0c-0.6,0-1.3-0.1-1.9-0.2c-0.6-0.1-1.1-0.3-1.7-0.5c-0.5-0.3-1-0.6-1.4-1
	s-0.8-0.9-1-1.4c-0.3-0.5-0.4-1.1-0.5-1.7C1,33.7,1,33.1,0.9,32.5c0-0.2,0-0.9,0-0.9V8.4c0,0,0-0.7,0-0.9c0-0.6,0.1-1.3,0.2-1.9
	C1.2,5.1,1.4,4.5,1.7,4s0.6-1,1-1.4s0.9-0.8,1.4-1c0.5-0.3,1.1-0.4,1.7-0.5C6.3,0.9,7,0.9,7.6,0.9h0.9h102.8h0.9
	c0.6,0,1.2,0.1,1.9,0.2c0.6,0.1,1.1,0.3,1.7,0.5c1,0.5,1.9,1.4,2.4,2.4c0.3,0.5,0.4,1.1,0.5,1.6c0.1,0.6,0.2,1.3,0.2,1.9
	c0,0.3,0,0.6,0,0.9c0,0.4,0,0.7,0,1.1v20.9c0,0.4,0,0.7,0,1.1c0,0.3,0,0.6,0,0.9c0,0.6-0.1,1.2-0.2,1.9c-0.1,0.6-0.3,1.1-0.5,1.7
	c-0.3,0.5-0.6,1-1,1.4s-0.9,0.8-1.4,1c-0.5,0.3-1.1,0.5-1.7,0.5c-0.6,0.1-1.2,0.2-1.9,0.2c-0.3,0-0.6,0-0.9,0h-1.1L8.5,39.1z"/>
<g>
	<g>
		<path class="st1" d="M24.3,33.6L24.3,33.6c-0.4-0.4-2.3-2.8-4.2-5.9c-0.6-1-1-1.8-0.9-1.9c0.2-0.5,3.6-0.8,4.7-0.3
			c0.3,0.1,0.3,0.3,0.3,0.4c0,0.5,0,1.7,0,1.7c0,0.3,0.2,0.5,0.5,0.5s0.5-0.2,0.5-0.5v-3.2l0,0c0-0.3-0.3-0.3-0.4-0.4
			c-0.5,0-1.7,0-2.9,0c-2.6,0-3.2,0.1-3.7-0.2c-1-0.6-2.6-4.9-2.6-7.3c-0.1-3.4,2-6.3,4.8-7.8c1.2-0.6,2.5-0.9,3.9-0.9
			c4.5,0,8.2,3.4,8.7,7.7l0,0c0.1,1.1-5.7,1.3-6.9,1c-0.2,0-0.2-0.2-0.2-0.3c0-0.8,0-3.1,0-3.1c0-0.3-0.2-0.5-0.5-0.5l0,0
			c-0.3,0-0.5,0.2-0.5,0.5v4.2c0,0.3,0.2,0.3,0.3,0.3c0.7,0,2.2,0,3.6,0c1.9,0,2.7,0.2,3.3,0.6c0.4,0.3,0.5,0.8,0.4,1.5
			C31.4,25.8,24.6,33.3,24.3,33.6z M42.9,19.5c1.7,0.7,2.8,1.6,2.8,3.4s-1.4,3-3.5,3c-1.7,0-3.1-0.8-3.8-2.2l-0.1-0.2l2.1-1.2
			l0.1,0.2c0.5,0.8,1,1.1,1.7,1.1c0.6,0,1.1-0.3,1.1-0.7c0-0.5-0.3-0.6-1.3-1.1l-0.5-0.2C40.2,21,39,20.3,39,18.4
			c0-1.7,1.3-2.9,3.2-2.9c1.4,0,2.4,0.5,3,1.7l0.1,0.2l-2,1.3L43,18.5c-0.3-0.6-0.6-0.7-1-0.7s-0.7,0.2-0.7,0.6s0.2,0.6,1.1,1
			L42.9,19.5z M57.4,19.9l1.4-4h2.5l-3.7,10.2H57l-2.2-4.8c-0.1-0.2-0.2-0.5-0.3-0.7c-0.1,0.3-0.2,0.5-0.3,0.7l-2.3,4.8h-0.5
			l-3.7-10.2h2.7l1.5,4c0.1,0.3,0.2,0.6,0.3,0.9c0.1-0.3,0.2-0.6,0.3-0.9l1.9-4.1h0.5l2,4.1c0.1,0.3,0.2,0.6,0.3,0.9
			C57.2,20.5,57.3,20.1,57.4,19.9z M64.2,25.8V15.6h2.5v10.2H64.2z M75,22.4v-2.3h4.7v4.6l-0.1,0.1c-0.5,0.4-1.9,1.2-3.9,1.2
			c-3.2,0-5.5-2.1-5.5-5.2c0-3,2.2-5.2,5.2-5.2c1.6,0,2.9,0.5,3.7,1.4l0.2,0.2l-1.7,1.7l-0.2-0.2c-0.5-0.5-1-0.8-2-0.8
			c-1.5,0-2.6,1.2-2.6,2.9c0,1.8,1.1,2.9,2.9,2.9c0.6,0,1.2-0.1,1.6-0.3v-1C77.3,22.4,75,22.4,75,22.4z M87.7,22.4v-2.3h4.7v4.6
			l-0.1,0.1c-0.5,0.4-1.9,1.2-3.9,1.2c-3.2,0-5.5-2.1-5.5-5.2c0-3,2.2-5.2,5.2-5.2c1.6,0,2.9,0.5,3.7,1.4l0.2,0.2l-1.7,1.7L90,18.6
			c-0.5-0.5-1-0.8-2-0.8c-1.5,0-2.6,1.2-2.6,2.9c0,1.8,1.1,2.9,2.9,2.9c0.6,0,1.2-0.1,1.6-0.3v-1L87.7,22.4L87.7,22.4z M101.6,15.6
			h2.6l-3.6,6.8v3.4h-2.5v-3.3l-3.8-6.9H97l1.8,3.2c0.2,0.4,0.4,0.8,0.5,1.2c0.1-0.4,0.3-0.8,0.5-1.2L101.6,15.6z"/>
	</g>
</g>
</svg>
