<?xml version="1.0" encoding="utf-8"?>
<!-- Generator: Adobe Illustrator 24.0.1, SVG Export Plug-In . SVG Version: 6.00 Build 0)  -->
<svg version="1.1" id="livetype" xmlns="http://www.w3.org/2000/svg" xmlns:xlink="http://www.w3.org/1999/xlink" x="0px" y="0px"
	 viewBox="0 0 119.7 40" style="enable-background:new 0 0 119.7 40;" xml:space="preserve">
<style type="text/css">
	.st0{fill:#FFFFFF;}
</style>
<title>Download_on_the_App_Store_Badge_US-UK_RGB_blk_4SVG_092917</title>
<path class="st0" d="M110.1,0H9.5C9.2,0,8.8,0,8.4,0C8.1,0,7.8,0,7.5,0c-0.7,0-1.3,0.1-2,0.2C4.9,0.3,4.2,0.5,3.6,0.8S2.5,1.5,2,2
	S1.1,3,0.8,3.6S0.3,4.9,0.2,5.5C0.1,6.2,0,6.9,0,7.5c0,0.3,0,0.6,0,0.9v23.1c0,0.3,0,0.6,0,0.9c0,0.7,0.1,1.3,0.2,2s0.3,1.3,0.6,1.9
	C1.1,37,1.5,37.5,2,38s1,0.9,1.6,1.2s1.2,0.5,1.9,0.6s1.3,0.2,2,0.2c0.3,0,0.6,0,0.9,0c0.4,0,0.7,0,1.1,0h100.6c0.4,0,0.7,0,1.1,0
	c0.3,0,0.6,0,0.9,0c0.7,0,1.3-0.1,2-0.2c0.7-0.1,1.3-0.3,1.9-0.6s1.1-0.7,1.6-1.2s0.9-1,1.2-1.6c0.3-0.6,0.5-1.2,0.6-1.9
	s0.2-1.3,0.2-2c0-0.3,0-0.6,0-0.9c0-0.4,0-0.7,0-1.1v-21c0-0.4,0-0.7,0-1.1c0-0.3,0-0.6,0-0.9c0-0.7-0.1-1.3-0.2-2s-0.3-1.3-0.6-1.9
	c-0.6-1.2-1.6-2.2-2.8-2.8c-0.6-0.3-1.2-0.5-1.9-0.6c-0.7-0.1-1.3-0.2-2-0.2c-0.3,0-0.6,0-0.9,0C110.9,0,110.5,0,110.1,0L110.1,0z"
	/>
<path class="st0" d="M8.5,39.1c-0.3,0-0.6,0-0.9,0c-0.6,0-1.3-0.1-1.9-0.2c-0.6-0.1-1.1-0.3-1.7-0.5c-0.5-0.3-1-0.6-1.4-1
	s-0.8-0.9-1-1.4c-0.3-0.5-0.4-1.1-0.5-1.7C1,33.7,1,33.1,0.9,32.5c0-0.2,0-0.9,0-0.9V8.4c0,0,0-0.7,0-0.9c0-0.6,0.1-1.3,0.2-1.9
	C1.2,5.1,1.4,4.5,1.7,4s0.6-1,1-1.4s0.9-0.8,1.4-1c0.5-0.3,1.1-0.4,1.7-0.5C6.3,0.9,7,0.9,7.6,0.9h0.9h102.8h0.9
	c0.6,0,1.2,0.1,1.9,0.2c0.6,0.1,1.1,0.3,1.7,0.5c1,0.5,1.9,1.4,2.4,2.4c0.3,0.5,0.4,1.1,0.5,1.6c0.1,0.6,0.2,1.3,0.2,1.9
	c0,0.3,0,0.6,0,0.9c0,0.4,0,0.7,0,1.1v20.9c0,0.4,0,0.7,0,1.1c0,0.3,0,0.6,0,0.9c0,0.6-0.1,1.2-0.2,1.9c-0.1,0.6-0.3,1.1-0.5,1.7
	c-0.3,0.5-0.6,1-1,1.4s-0.9,0.8-1.4,1c-0.5,0.3-1.1,0.5-1.7,0.5c-0.6,0.1-1.2,0.2-1.9,0.2c-0.3,0-0.6,0-0.9,0h-1.1L8.5,39.1z"/>
<image style="overflow:visible;" width="1507" height="401" xlink:href="C:\Users\rameez\Downloads\logo.png"  transform="matrix(7.307076e-02 0 0 7.307076e-02 5.7059 5.8257)">
</image>
</svg>
