<svg xmlns="http://www.w3.org/2000/svg" viewBox="0 0 84.94 85.6"><defs><style>.cls-1{fill:#30bf39;fill-rule:evenodd;}</style></defs><title>Whatss-app-icon</title><g id="Layer_2" data-name="Layer 2"><g id="OBJECTS"><path class="cls-1" d="M62.79,51.17c-1-.57-6.18-3.34-7.14-3.73s-1.67-.6-2.42.44-2.88,3.36-3.52,4-1.27.75-2.32.18A29.38,29.38,0,0,1,39,46.5a32.35,32.35,0,0,1-5.65-7.59c-.58-1.09,0-1.64.55-2.15S35,35.55,35.6,35a7.47,7.47,0,0,0,1.13-1.73,2,2,0,0,0,0-1.87c-.25-.54-2.18-5.86-3-8S32,21.48,31.4,21.46s-1.33-.14-2-.17a4,4,0,0,0-2.89,1.23,11.94,11.94,0,0,0-4,8.74c-.2,5.23,3.42,10.44,3.93,11.17s6.92,12.08,17.57,16.75,10.72,3.24,12.68,3.14S63,60,64,57.53s1.06-4.59.81-5-1-.75-2-1.32ZM43.24,76.41a34.48,34.48,0,0,1-19.1-5.74L10.8,74.94l4.34-12.89a34.7,34.7,0,1,1,28.1,14.36ZM43.24,0A41.7,41.7,0,0,0,7.53,63.23L0,85.6l23.08-7.39A41.7,41.7,0,1,0,43.24,0Z"/></g></g></svg>