<?xml version="1.0" standalone="no"?>
<!DOCTYPE svg PUBLIC "-//W3C//DTD SVG 20010904//EN"
 "http://www.w3.org/TR/2001/REC-SVG-20010904/DTD/svg10.dtd">
<svg version="1.0" xmlns="http://www.w3.org/2000/svg"
 width="256.000000pt" height="146.000000pt" viewBox="0 0 256.000000 146.000000"
 preserveAspectRatio="xMidYMid meet">

<g transform="translate(0.000000,146.000000) scale(0.100000,-0.100000)"
fill="#000000" stroke="none">
<path d="M2098 1453 c7 -3 16 -2 19 1 4 3 -2 6 -13 5 -11 0 -14 -3 -6 -6z"/>
<path d="M2052 1365 c-16 -14 -37 -43 -46 -65 -23 -58 -46 -212 -46 -311 0
-83 -1 -86 -33 -117 -50 -49 -87 -40 -87 21 0 11 20 59 44 106 50 98 71 175
63 233 -15 109 -125 104 -172 -8 -41 -98 -59 -357 -29 -419 34 -73 110 -65
179 20 l39 47 19 -26 c12 -16 28 -26 44 -26 35 0 84 32 106 70 l19 31 -26 -7
c-32 -8 -56 10 -56 42 0 14 18 59 39 102 68 135 87 232 56 291 -24 48 -68 54
-113 16z m96 -105 c4 -23 -39 -170 -58 -200 -19 -31 -22 3 -6 89 9 50 21 102
26 117 12 30 34 27 38 -6z m-230 -69 c4 -23 -39 -173 -57 -201 -20 -31 -23 3
-7 89 9 50 21 102 26 117 12 30 34 27 38 -5z"/>
<path d="M1764 1328 l-19 -23 23 19 c21 18 27 26 19 26 -2 0 -12 -10 -23 -22z"/>
<path d="M2380 1273 c-78 -30 -150 -121 -150 -190 0 -46 15 -63 78 -88 23 -10
42 -21 42 -26 0 -17 -44 -31 -81 -26 -33 4 -39 2 -39 -14 0 -42 96 -33 173 17
67 43 67 92 2 114 -20 7 -43 23 -51 36 -15 21 -14 27 3 61 21 44 59 60 51 21
-3 -12 -9 -31 -13 -40 -10 -26 8 -22 44 8 35 29 55 87 40 115 -10 19 -64 25
-99 12z"/>
<path d="M1554 998 c-24 -22 -39 -29 -42 -20 -11 35 -69 -16 -103 -93 -27 -61
-36 -169 -17 -205 26 -49 89 -39 158 26 83 78 135 239 96 299 -22 34 -48 32
-92 -7z m31 -81 c3 -12 1 -44 -5 -71 -33 -146 -116 -156 -86 -10 7 37 16 58
24 56 7 -1 17 9 22 23 12 31 38 33 45 2z"/>
<path d="M1256 897 c-12 -12 -27 -31 -32 -40 -9 -16 -12 -16 -42 -1 -23 11
-40 13 -60 7 -23 -8 -29 -18 -39 -64 -6 -30 -12 -93 -12 -141 -1 -75 2 -91 19
-108 23 -23 27 -24 59 -6 21 11 24 21 26 82 2 55 9 82 36 137 34 68 49 83 49
48 0 -11 11 -32 24 -48 21 -24 26 -26 49 -16 19 9 24 17 20 32 -3 12 0 42 6
67 14 56 4 74 -46 74 -22 0 -42 -8 -57 -23z"/>
<path d="M1012 829 c-25 -10 -32 -23 -62 -134 -26 -96 -55 -165 -69 -165 -7 0
-11 36 -11 100 0 110 -6 120 -68 120 -48 0 -55 -18 -50 -137 5 -128 22 -173
66 -173 77 0 151 109 201 298 12 46 21 87 19 91 -2 5 -13 5 -26 0z"/>
<path d="M278 765 c-40 -21 -82 -35 -103 -35 -27 0 -38 -5 -45 -22 -29 -72
-67 -368 -56 -442 8 -53 35 -87 63 -80 16 4 19 17 21 72 4 109 13 135 52 154
19 10 50 18 68 18 26 0 35 5 42 26 13 34 13 40 -6 58 -14 14 -18 14 -47 0 -18
-9 -42 -26 -54 -37 -13 -11 -23 -16 -23 -10 0 22 33 169 41 185 5 9 48 28 99
45 73 23 92 32 96 50 17 64 -45 71 -148 18z"/>
<path d="M629 693 c-10 -2 -23 -28 -33 -66 -23 -81 -81 -203 -102 -211 -26
-10 -34 2 -34 51 0 63 38 127 85 144 37 14 39 17 29 43 -20 51 -124 -15 -171
-108 -51 -100 -41 -246 17 -246 31 0 103 72 130 129 25 55 40 65 40 27 0 -14
4 -36 10 -50 11 -31 53 -35 88 -8 19 15 21 21 12 51 -9 32 -3 104 16 198 5 25
2 33 -14 42 -21 11 -43 12 -73 4z"/>
<path d="M1231 614 c0 -11 3 -14 6 -6 3 7 2 16 -1 19 -3 4 -6 -2 -5 -13z"/>
<path d="M1814 579 c-4 -7 -10 -29 -14 -48 -4 -20 -8 -40 -10 -46 -1 -5 -2
-26 -1 -45 2 -55 20 -14 31 72 9 74 8 89 -6 67z"/>
<path d="M1577 535 c-11 -67 -28 -116 -36 -110 -5 2 -12 35 -16 71 -4 38 -11
62 -16 57 -4 -4 -15 -42 -24 -83 -9 -40 -18 -76 -20 -79 -12 -11 -17 13 -18
83 -2 84 -15 87 -24 5 -6 -65 7 -123 30 -127 12 -3 19 10 28 57 14 64 29 81
29 32 0 -63 32 -84 51 -33 15 38 31 130 27 150 -2 9 -7 -1 -11 -23z"/>
<path d="M1734 525 c-8 -43 0 -65 23 -65 14 0 15 2 4 9 -10 7 -12 20 -7 50 8
50 -10 56 -20 6z"/>
<path d="M1687 533 c-2 -5 -7 -24 -11 -44 -5 -28 -3 -38 9 -43 12 -4 15 4 15
44 0 48 -4 59 -13 43z"/>
<path d="M1627 512 c-18 -20 -23 -82 -7 -82 6 0 10 13 10 28 0 16 9 38 20 50
15 16 17 22 7 22 -8 0 -21 -8 -30 -18z"/>
<path d="M939 433 c-13 -16 -12 -17 4 -4 16 13 21 21 13 21 -2 0 -10 -8 -17
-17z"/>
<path d="M1306 403 c-4 -5 -18 -8 -29 -8 -19 0 -22 -6 -25 -54 -2 -40 0 -52
10 -49 7 3 14 20 16 39 4 40 31 76 43 57 4 -7 11 -9 14 -6 8 8 -2 28 -14 28
-4 0 -11 -3 -15 -7z"/>
<path d="M1202 368 c-15 -19 -19 -81 -6 -85 7 -2 14 15 19 42 7 51 4 63 -13
43z"/>
<path d="M1131 329 c-6 -18 -11 -40 -11 -50 0 -29 25 -23 26 6 1 14 5 36 8 50
9 36 -10 31 -23 -6z"/>
<path d="M2 320 c0 -14 2 -19 5 -12 2 6 2 18 0 25 -3 6 -5 1 -5 -13z"/>
<path d="M1026 301 c-19 -21 -19 -72 0 -78 7 -2 10 6 7 22 -3 14 2 36 11 50
19 29 7 33 -18 6z"/>
<path d="M1074 287 c0 -18 -4 -41 -8 -52 -7 -17 -5 -17 13 4 24 26 27 54 9 69
-10 8 -13 3 -14 -21z"/>
<path d="M966 283 c-10 -38 -19 -90 -21 -127 -1 -34 0 -36 12 -20 7 10 13 27
14 38 0 12 4 45 8 74 7 49 -2 73 -13 35z"/>
<path d="M896 264 c-3 -9 -6 -31 -6 -50 0 -29 4 -34 23 -34 16 0 18 3 8 9 -9
6 -12 22 -9 50 4 41 -5 55 -16 25z"/>
<path d="M645 216 c-14 -22 -19 -44 -17 -78 4 -61 17 -62 26 -2 3 26 10 52 14
58 5 6 6 20 3 32 -6 20 -7 19 -26 -10z"/>
<path d="M742 233 c-19 -8 -44 -62 -37 -83 11 -35 30 -29 30 10 1 39 20 74 36
65 4 -3 4 -17 -2 -32 -13 -34 -3 -43 12 -10 9 21 9 30 -1 42 -13 16 -17 17
-38 8z"/>
<path d="M464 195 c-15 -22 -42 -27 -29 -4 4 5 2 9 -3 9 -12 0 -22 -60 -22
-137 0 -58 10 -78 25 -53 3 6 15 10 25 10 10 0 32 12 49 26 23 19 31 34 31 57
l-1 32 -19 -37 c-18 -34 -54 -68 -72 -68 -21 0 -6 53 22 77 37 31 64 79 55
101 -4 11 -11 5 -26 -25 -11 -23 -29 -49 -40 -58 -18 -17 -19 -17 -19 1 0 21
24 62 48 82 9 7 11 12 4 12 -6 0 -19 -11 -28 -25z"/>
<path d="M576 144 c-9 -24 -7 -84 3 -84 7 0 21 54 21 88 0 17 -17 15 -24 -4z"/>
<path d="M900 130 c0 -5 5 -10 11 -10 5 0 7 5 4 10 -3 6 -8 10 -11 10 -2 0 -4
-4 -4 -10z"/>
</g>
</svg>
